<svg id="Grupo_61" data-name="Grupo 61" xmlns="http://www.w3.org/2000/svg" xmlns:xlink="http://www.w3.org/1999/xlink" width="46.592" height="62.501" viewBox="0 0 46.592 62.501" xmlns:c2pa="http://c2pa.org/manifest"><metadata><c2pa:manifest>AAAWgmp1bWIAAAAeanVtZGMycGEAEQAQgAAAqgA4m3EDYzJwYQAAABZcanVtYgAAAEdqdW1kYzJtYQARABCAAACqADibcQN1cm46YzJwYTo2NTU0YmExZS0xNzFkLTRhNjktOWI0Mi1hMmJjMzYwZGNhN2QAAAADl2p1bWIAAAApanVtZGMyYXMAEQAQgAAAqgA4m3EDYzJwYS5hc3NlcnRpb25zAAAAALxqdW1iAAAARGp1bWRjYm9yABEAEIAAAKoAOJtxE2MycGEuaW5ncmVkaWVudC52MwAAAAAYYzJzaPCIhWfnuYthYyK6O9/iCm8AAABwY2JvcqNpZGM6Zm9ybWF0bWltYWdlL3N2Zyt4bWxqaW5zdGFuY2VJRHgseG1wOmlpZDphZmQzNzA5OC05NDk4LTRjZjctOGEzNy0zMTU2ZmE0YjRhMjNscmVsYXRpb25zaGlwaHBhcmVudE9mAAAB4mp1bWIAAABBanVtZGNib3IAEQAQgAAAqgA4m3ETYzJwYS5hY3Rpb25zLnYyAAAAABhjMnNoGGcF/iprIvrXIvRJsbWYgAAAAZljYm9yomdhY3Rpb25zgqJmYWN0aW9ua2MycGEub3BlbmVkanBhcmFtZXRlcnOha2luZ3JlZGllbnRzgaJjdXJseC1zZWxmI2p1bWJmPWMycGEuYXNzZXJ0aW9ucy9jMnBhLmluZ3JlZGllbnQudjNkaGFzaFgg+Anzgx5coQ689prOXzE7PE0oMmSHllMEfFEJKeeuEBKkZmFjdGlvbngdY29tLmFudGhyb3BpYy5jbGF1ZGUucHJvdmlkZWRqcGFyYW1ldGVyc6F4H2NvbS5hbnRocm9waWMub3JpZ2luLWNvbmZpZGVuY2VndW5rbm93bmtkZXNjcmlwdGlvbnhmQ2xhdWRlIHByb3ZpZGVkIHRoaXMgZmlsZSBhdCB0aGUgcmVxdWVzdCBvZiBhIHVzZXIgYW5kIG1heSBoYXZlIGNyZWF0ZWQgb3IgbW9kaWZpZWQgdGhlIGZpbGUgY29udGVudHMubXNvZnR3YXJlQWdlbnShZG5hbWVmQ2xhdWRlcmFsbEFjdGlvbnNJbmNsdWRlZPUAAADIanVtYgAAAEBqdW1kY2JvcgARABCAAACqADibcRNjMnBhLmhhc2guZGF0YQAAAAAYYzJzaKXU1D8QaNf64k4TLz9l9HgAAACAY2JvcqVjYWxnZnNoYTI1NmNwYWRNAAAAAAAAAAAAAAAAAGRoYXNoWCCo6H1eys5qRsHL0VgrB6irz/waXcbZSKD5f8FtQHBr/GRuYW1lbmp1bWJmIG1hbmlmZXN0amV4Y2x1c2lvbnOBomVzdGFydBjwZmxlbmd0aBkeBAAAAj5qdW1iAAAAJ2p1bWRjMmNsABEAEIAAAKoAOJtxA2MycGEuY2xhaW0udjIAAAACD2Nib3KlY2FsZ2ZzaGEyNTZpc2lnbmF0dXJleE1zZWxmI2p1bWJmPS9jMnBhL3VybjpjMnBhOjY1NTRiYTFlLTE3MWQtNGE2OS05YjQyLWEyYmMzNjBkY2E3ZC9jMnBhLnNpZ25hdHVyZWppbnN0YW5jZUlEeCx4bXA6aWlkOmY5OGI4ZDNiLWJlYjgtNDZiMC05MDM4LTNlMDQ1MmQ3MDkzYnJjcmVhdGVkX2Fzc2VydGlvbnODomN1cmx4LXNlbGYjanVtYmY9YzJwYS5hc3NlcnRpb25zL2MycGEuaW5ncmVkaWVudC52M2RoYXNoWCD4CfODHlyhDrz2ms5fMTs8TSgyZIeWUwR8UQkp564QEqJjdXJseCpzZWxmI2p1bWJmPWMycGEuYXNzZXJ0aW9ucy9jMnBhLmFjdGlvbnMudjJkaGFzaFggOEfSFovYu/u8WYGoajEwWHzyFNLz4flJYowbtRmWnM+iY3VybHgpc2VsZiNqdW1iZj1jMnBhLmFzc2VydGlvbnMvYzJwYS5oYXNoLmRhdGFkaGFzaFggectYk0eH91rMUCxdRFZYz7AeWM6Q7PbXDJW5WDo9bNt0Y2xhaW1fZ2VuZXJhdG9yX2luZm+jZG5hbWVvQW50aHJvcGljIEZpbGVzZ3ZlcnNpb25lMS4wLjBrc3BlY1ZlcnNpb25lMi40LjAAABA4anVtYgAAAChqdW1kYzJjcwARABCAAACqADibcQNjMnBhLnNpZ25hdHVyZQAAABAIY2JvctKEWQISogEmGCFZAgowggIGMIIBjaADAgECAhRA5aAK7sI50L64g/oGQgU9Z1UTADAKBggqhkjOPQQDAzBJMRcwFQYDVQQKEw5BbnRocm9waWMsIFBCQzEuMCwGA1UEAxMlQW50aHJvcGljIENvbnRlbnQgQ3JlZGVudGlhbHMgUm9vdCBDQTAeFw0yNjA4MDcxODQzNTZaFw0yODA4MDYxOTQzNTZaMEQxFzAVBgNVBAoTDkFudGhyb3BpYywgUEJDMSkwJwYDVQQDEyBBbnRocm9waWMgQ2xhdWRlIENvbnRlbnQgU2lnbmluZzBZMBMGByqGSM49AgEGCCqGSM49AwEHA0IABJh6CmvLUBgFFNU0vUKlOVtE6djd17L5SuwX0LemFisBM3dkd/3cyjxFA3Qo5S46fX0/ihY0VZ7mfb9KF703t5OjWDBWMA4GA1UdDwEB/wQEAwIHgDAVBgNVHSUEDjAMBgorBgEEAYPoXgIBMAwGA1UdEwEB/wQCMAAwHwYDVR0jBBgwFoAUzlHiBIFOZFsj+OPEz5o+nMHXXMIwCgYIKoZIzj0EAwMDZwAwZAIwMXMdFJ4BetLLVY7ORuE9noqbbAZOZn/aArXyTwFAZfKrPzxF2vPoJNf1+UCdg1XGAjBwX1zd9WGqYkqmL5SFqw1QySjr1zJfpJM9+1rdDwSPLMOPOjKuiXjoU/pUUeG9RwmhY3BhZFkNngAAAAAAAAAAAAAAAAAAAAAAAAAAAAAAAAAAAAAAAAAAAAAAAAAAAAAAAAAAAAAAAAAAAAAAAAAAAAAAAAAAAAAAAAAAAAAAAAAAAAAAAAAAAAAAAAAAAAAAAAAAAAAAAAAAAAAAAAAAAAAAAAAAAAAAAAAAAAAAAAAAAAAAAAAAAAAAAAAAAAAAAAAAAAAAAAAAAAAAAAAAAAAAAAAAAAAAAAAAAAAAAAAAAAAAAAAAAAAAAAAAAAAAAAAAAAAAAAAAAAAAAAAAAAAAAAAAAAAAAAAAAAAAAAAAAAAAAAAAAAAAAAAAAAAAAAAAAAAAAAAAAAAAAAAAAAAAAAAAAAAAAAAAAAAAAAAAAAAAAAAAAAAAAAAAAAAAAAAAAAAAAAAAAAAAAAAAAAAAAAAAAAAAAAAAAAAAAAAAAAAAAAAAAAAAAAAAAAAAAAAAAAAAAAAAAAAAAAAAAAAAAAAAAAAAAAAAAAAAAAAAAAAAAAAAAAAAAAAAAAAAAAAAAAAAAAAAAAAAAAAAAAAAAAAAAAAAAAAAAAAAAAAAAAAAAAAAAAAAAAAAAAAAAAAAAAAAAAAAAAAAAAAAAAAAAAAAAAAAAAAAAAAAAAAAAAAAAAAAAAAAAAAAAAAAAAAAAAAAAAAAAAAAAAAAAAAAAAAAAAAAAAAAAAAAAAAAAAAAAAAAAAAAAAAAAAAAAAAAAAAAAAAAAAAAAAAAAAAAAAAAAAAAAAAAAAAAAAAAAAAAAAAAAAAAAAAAAAAAAAAAAAAAAAAAAAAAAAAAAAAAAAAAAAAAAAAAAAAAAAAAAAAAAAAAAAAAAAAAAAAAAAAAAAAAAAAAAAAAAAAAAAAAAAAAAAAAAAAAAAAAAAAAAAAAAAAAAAAAAAAAAAAAAAAAAAAAAAAAAAAAAAAAAAAAAAAAAAAAAAAAAAAAAAAAAAAAAAAAAAAAAAAAAAAAAAAAAAAAAAAAAAAAAAAAAAAAAAAAAAAAAAAAAAAAAAAAAAAAAAAAAAAAAAAAAAAAAAAAAAAAAAAAAAAAAAAAAAAAAAAAAAAAAAAAAAAAAAAAAAAAAAAAAAAAAAAAAAAAAAAAAAAAAAAAAAAAAAAAAAAAAAAAAAAAAAAAAAAAAAAAAAAAAAAAAAAAAAAAAAAAAAAAAAAAAAAAAAAAAAAAAAAAAAAAAAAAAAAAAAAAAAAAAAAAAAAAAAAAAAAAAAAAAAAAAAAAAAAAAAAAAAAAAAAAAAAAAAAAAAAAAAAAAAAAAAAAAAAAAAAAAAAAAAAAAAAAAAAAAAAAAAAAAAAAAAAAAAAAAAAAAAAAAAAAAAAAAAAAAAAAAAAAAAAAAAAAAAAAAAAAAAAAAAAAAAAAAAAAAAAAAAAAAAAAAAAAAAAAAAAAAAAAAAAAAAAAAAAAAAAAAAAAAAAAAAAAAAAAAAAAAAAAAAAAAAAAAAAAAAAAAAAAAAAAAAAAAAAAAAAAAAAAAAAAAAAAAAAAAAAAAAAAAAAAAAAAAAAAAAAAAAAAAAAAAAAAAAAAAAAAAAAAAAAAAAAAAAAAAAAAAAAAAAAAAAAAAAAAAAAAAAAAAAAAAAAAAAAAAAAAAAAAAAAAAAAAAAAAAAAAAAAAAAAAAAAAAAAAAAAAAAAAAAAAAAAAAAAAAAAAAAAAAAAAAAAAAAAAAAAAAAAAAAAAAAAAAAAAAAAAAAAAAAAAAAAAAAAAAAAAAAAAAAAAAAAAAAAAAAAAAAAAAAAAAAAAAAAAAAAAAAAAAAAAAAAAAAAAAAAAAAAAAAAAAAAAAAAAAAAAAAAAAAAAAAAAAAAAAAAAAAAAAAAAAAAAAAAAAAAAAAAAAAAAAAAAAAAAAAAAAAAAAAAAAAAAAAAAAAAAAAAAAAAAAAAAAAAAAAAAAAAAAAAAAAAAAAAAAAAAAAAAAAAAAAAAAAAAAAAAAAAAAAAAAAAAAAAAAAAAAAAAAAAAAAAAAAAAAAAAAAAAAAAAAAAAAAAAAAAAAAAAAAAAAAAAAAAAAAAAAAAAAAAAAAAAAAAAAAAAAAAAAAAAAAAAAAAAAAAAAAAAAAAAAAAAAAAAAAAAAAAAAAAAAAAAAAAAAAAAAAAAAAAAAAAAAAAAAAAAAAAAAAAAAAAAAAAAAAAAAAAAAAAAAAAAAAAAAAAAAAAAAAAAAAAAAAAAAAAAAAAAAAAAAAAAAAAAAAAAAAAAAAAAAAAAAAAAAAAAAAAAAAAAAAAAAAAAAAAAAAAAAAAAAAAAAAAAAAAAAAAAAAAAAAAAAAAAAAAAAAAAAAAAAAAAAAAAAAAAAAAAAAAAAAAAAAAAAAAAAAAAAAAAAAAAAAAAAAAAAAAAAAAAAAAAAAAAAAAAAAAAAAAAAAAAAAAAAAAAAAAAAAAAAAAAAAAAAAAAAAAAAAAAAAAAAAAAAAAAAAAAAAAAAAAAAAAAAAAAAAAAAAAAAAAAAAAAAAAAAAAAAAAAAAAAAAAAAAAAAAAAAAAAAAAAAAAAAAAAAAAAAAAAAAAAAAAAAAAAAAAAAAAAAAAAAAAAAAAAAAAAAAAAAAAAAAAAAAAAAAAAAAAAAAAAAAAAAAAAAAAAAAAAAAAAAAAAAAAAAAAAAAAAAAAAAAAAAAAAAAAAAAAAAAAAAAAAAAAAAAAAAAAAAAAAAAAAAAAAAAAAAAAAAAAAAAAAAAAAAAAAAAAAAAAAAAAAAAAAAAAAAAAAAAAAAAAAAAAAAAAAAAAAAAAAAAAAAAAAAAAAAAAAAAAAAAAAAAAAAAAAAAAAAAAAAAAAAAAAAAAAAAAAAAAAAAAAAAAAAAAAAAAAAAAAAAAAAAAAAAAAAAAAAAAAAAAAAAAAAAAAAAAAAAAAAAAAAAAAAAAAAAAAAAAAAAAAAAAAAAAAAAAAAAAAAAAAAAAAAAAAAAAAAAAAAAAAAAAAAAAAAAAAAAAAAAAAAAAAAAAAAAAAAAAAAAAAAAAAAAAAAAAAAAAAAAAAAAAAAAAAAAAAAAAAAAAAAAAAAAAAAAAAAAAAAAAAAAAAAAAAAAAAAAAAAAAAAAAAAAAAAAAAAAAAAAAAAAAAAAAAAAAAAAAAAAAAAAAAAAAAAAAAAAAAAAAAAAAAAAAAAAAAAAAAAAAAAAAAAAAAAAAAAAAAAAAAAAAAAAAAAAAAAAAAAAAAAAAAAAAAAAAAAAAAAAAAAAAAAAAAAAAAAAAAAAAAAAAAAAAAAAAAAAAAAAAAAAAAAAAAAAAAAAAAAAAAAAAAAAAAAAAAAAAAAAAAAAAAAAAAAAAAAAAAAAAAAAAAAAAAAAAAAAAAAAAAAAAAAAAAAAAAAAAAAAAAAAAAAAAAAAAAAAAAAAAAAAAAAAAAAAAAAAAAAAAAAAAAAAAAAAAAAAAAAAAAAAAAAAAAAAAAAAAAAAAAAAAAAAAAAAAAAAAAAAAAAAAAAAAAAAAAAAAAAAAAAAAAAAAAAAAAAAAAAAAAAAAAAAAAAAAAAAAAAAAAAAAAAAAAAAAAAAAAAAAAAAAAAAAAAAAAAAAAAAAAAAAAAAAAAAAAAAAAAAAAAAAAAAAAAAAAAAAAAAAAAAAAAAAAAAAAAAAAAAAAAAAAAAAAAAAAAAAAAAAAAAAAAAAAAAAAAAAAAAAAAAAAAAAAAAAAAAAAAAAAAAAAAAAAAAAAAAAAAAAAAAAAAAAAAAAAAAAAAAAAAAAAAAAAAAAAAAAAAAAAAAAAAAAAAAAAAAAAAAAAAAAAAAAAAAAAAAAAAAAAAAAAAAAAAAAAAAAAAAAAAAAAAAAAAAAAAAAAAAAAAAAAAAAAAAAAAAAAAAAAAAAAAAAAAAAAAAAAAAAAAAAAAAAAAAAAAAAAAAAAAAAAAAAAAAAAAAAAAAAAAAAAAAAAAAAAAAAAAAAAAAAAAAAAAAAAAAAAAAAAAAAAAAAAAAAAAAAAAAAAAAAAAAAAAAAAAAAAAAAAAAAAAAAAAAAAAAAAAAAAAAAAAAAAAAAAAAAAAAAAAAAAAAAAAAAAAAAAAAAAAAAAAAAAAAAAAAAAAAAAAAAAAAAAAAAAAAAAAAAAAAAAAAAAAAAAAAAAAAAAAAAAAAAAAAAAAAAAAAAAAAAAAAAAAAAAAAAAAAAAAAAAAAAAAAAAAAAAAAAAAAAAAAAAAAAAAAAAAAAAAAAAAAAAAAAAAAAAAAAAAAAAAAAAAAAAAAAAAAAAAAAAAAAAAAAAAAAAAAAAAAAAAAAAAAAAAAAAAAAAAAAAAAAAAAAAAAAAAAAAAAAAAAAAAAAAAAAAAAAAAAAAAAAAAAAAAAAAAAAAAAAAAAAAAAAAAAAAAAAAAAAAAAAAAAAAAAAAAAAAAAAAAAAAAAAAAAAAAAAAAAAAAAAAAAAAAAAAAAAAAAAAAAAAAAAAAAAAAAAAAAAAAAAAAAAAAAAAAAAAAAAAAAAAAAAAAAAAAAAAAAAAAAAAAAAAAAAAAAAAAAAAAAAAAAAAAAAAAAAAAAAAAAAAAAAAAAAAAAAAAAAAAAAAAAAAAAAAAAAAAAAAAAAAAAAAAAAAAAAAAAAAAAAAAAAAAAAAAAAAAAAAAAAAAAAAAAAAAAAAAAAAAAAAAAAAAAAAAAAAAAAAAAAAAAAAAAAAAAAAAAAAAAAAAAAAAAAAAAAAAAAAAAAAAAAAAAAAAAAAAAAAAAAAAAAAAAAAAAAAAAAAAAAAAPZYQMS2/v1X58kzQ0AHLxuyeO3MhjClPBXXvv29OEwAjobFL6NKpGwkjGIrqvrw5/88bw1AMvTH9jVKMbwd1qLOsL0=</c2pa:manifest></metadata>
  <defs>
    <clipPath id="clip-path">
      <rect id="Rectángulo_109" data-name="Rectángulo 109" width="46.592" height="62.501" fill="none"/>
    </clipPath>
  </defs>
  <g id="Grupo_60" data-name="Grupo 60" clip-path="url(#clip-path)">
    <path id="Trazado_696" data-name="Trazado 696" d="M172.126,1.439a4.957,4.957,0,0,0-1.975-.131c.1-.354.235-1.238.638-1.3.61-.095,1.169.974,1.337,1.432" transform="translate(-147.5 0)" fill="#c99a96"/>
    <path id="Trazado_697" data-name="Trazado 697" d="M22.311,138.8c.174.133.119.292.023.543-.82,2.126.509,2.373,2.156,3.934,1.047.993,1.68.383,2.63.154a20.265,20.265,0,0,1-1.858,5.021A38.277,38.277,0,0,1,29.7,153.53a48.193,48.193,0,0,0,4.871,6.433c.385.417.661,1,1.223,1.059a11.8,11.8,0,0,0,2.6,2.914c.557.3,1.292.177,1.819.682,1.476,1.415-.468,2.591-.2,5.6l.154,1.722c-.1-.01-.136.121-.136.259v1.744c0,.138.033.269.136.259-.029.056-.111.079-.133.133l-.66,1.6c-.023.055-.142.086-.2.127-.083.054-.083.138.066.137l-1.038,1.174c-.362-.144-.686.223-1.047.347l-2.97,1.025a32.593,32.593,0,0,0-5.809,1.364c-3.359,1.058-3.205,3.145-6.7,2.643-4.7-.675-6.17.934-10.326-.9a19.155,19.155,0,0,1-6.993-5.373,1.4,1.4,0,0,1-.41-1.072l3.811-4.047a4.077,4.077,0,0,1-2.714-2.675c1.819-1.116,5.251-6.031,6.451-7.876l7.6-11.676c.891-1.37,1.641-1.906,1.3-2.939a22.792,22.792,0,0,0-.967-2.356c-.573-1.237,1.822-3.965,2.392-4.914a2.418,2.418,0,0,1,.508-.115" transform="translate(-3.396 -120.327)" fill="#a98583"/>
    <path id="Trazado_698" data-name="Trazado 698" d="M145.506,23.563a1.253,1.253,0,0,0-.236.7c-.167,3.52.632,1.907.013,7.315l-.439,3.833a10.019,10.019,0,0,1-.775,2.725,13.534,13.534,0,0,0-.551,2.1c-.951.229-1.584.838-2.63-.154-1.646-1.562-2.976-1.808-2.156-3.934.1-.25.151-.409-.023-.543.579-1.345.209-1.466-.519-2.687.1-.294-.034-.664.054-1.013a9.571,9.571,0,0,0,.367-1.915c.031-.509.85-1.4,1.336-.953.618.568.911,1.447,1.683,1.92.96.587-.567,1.6-.572,2.192.313-.178.434-.5.771-.752.178,1-.179.376-.316,2.161-.021.27-.408.953.159.961,1.449-.543,2.067-2.984,1.574-4.187V30.26c.119-.035.134-.14,0-.133a3.053,3.053,0,0,1-.013-.507.186.186,0,0,0,.238-.116c.047-.246.105-4.124.13-4.965a17.544,17.544,0,0,1-.033-2.14c.164-1.1-1.482-.8-.963-2.65.343.192.536.567.918.719-1.236.545.518.648,1.392,2.148.2.352.268.748.594.947" transform="translate(-119.794 -17.121)" fill="#c99a96"/>
    <path id="Trazado_699" data-name="Trazado 699" d="M18.407,138.729c-.57.949-2.965,3.676-2.392,4.914-.143,0-.235.077-.37.2a25.039,25.039,0,0,1-3.485,3.02,51.762,51.762,0,0,1-7.9,3.451c-.448.174-.75.521-1.282.579-1,.11-1.812.877-1.969.537-.235-.51.736-.6.74-.994-.093-.346-.632-.4-.943-.5a1.023,1.023,0,0,1-.661-1.493c1.215-.74.737-.237,1.9.034l.223-.846c.488.524.811,1.126,1.441,1.234a3.471,3.471,0,0,0,.793.816,2.117,2.117,0,0,0,1.747-.683c.065-.293-.112-.694,0-.94a21.876,21.876,0,0,0,7.867-6.808c.966-1.22,2.661-3.216,4.293-2.518" transform="translate(0 -120.136)" fill="#c99a96"/>
    <path id="Trazado_700" data-name="Trazado 700" d="M125.718,67.654a3.054,3.054,0,0,0,.013.507l0,.133v1.065c0,1.282-.228,2.948-1.733,3.226.137-1.784.493-1.158.316-2.161-.337.253-.459.574-.771.752.005-.587,1.532-1.6.572-2.192-.772-.472-1.065-1.351-1.683-1.92-.485-.446-1.3.443-1.335.953a9.568,9.568,0,0,1-.367,1.915c-.089.348.045.719-.054,1.013a3.4,3.4,0,0,0-.07,1.59c-.854-.572-.369-1.122-.83-1.7-.359.263-.264.573-.413,1.007a1.5,1.5,0,0,1,.168-1.522,3.122,3.122,0,0,0-1.543.942,1.632,1.632,0,0,1,.81-1.256c2.067-1.508.954-3.284,3.135-4.057a1.511,1.511,0,0,1,.877-1.913c.486-.27,1.271-.712,1.706-.111.731,1.009,1.534.628.895,2.834-.1.347.18.649.306.895" transform="translate(-102.282 -55.155)" fill="#401e1d"/>
    <path id="Trazado_701" data-name="Trazado 701" d="M30.4,205.737c-.11.246.067.646,0,.94a2.117,2.117,0,0,1-1.747.683,3.471,3.471,0,0,1-.793-.816c.192-.257.066-.652.324-.949a1.5,1.5,0,0,1,1.419-.406c.313.164.458.542.794.549" transform="translate(-24.156 -177.819)" fill="#a98583"/>
    <path id="Trazado_702" data-name="Trazado 702" d="M176.152,97.831l0-.133c.137-.007.122.1,0,.133" transform="translate(-152.7 -84.692)" fill="#fefefd"/>
    <path id="Trazado_703" data-name="Trazado 703" d="M201.325,43.637a1.168,1.168,0,0,0,1.166.815.537.537,0,0,1,.041.376.46.46,0,0,0-.273.266c-.2.715-.807,1.363-.824,2.185a21.341,21.341,0,0,0,.528,4.421c.259.245,3.365-3.6,3.735-3.987a18.741,18.741,0,0,0,.285-3.156c-.011-.26.293-.629.125-.925.267.088.4.39.58.625a10.432,10.432,0,0,0,3.839,2.619c.584.3.839,1.23,1,1.876a34.329,34.329,0,0,1,.963,8.576c0,.731-4.121,3.508-4.895,4.039l.207,2.218c-.326.242-.74.217-1.121.442-.186,2.962-1.347,5.762-.879,8.626a23.035,23.035,0,0,1-.074,3.446c.038,2.16.5,4.2.731,6.321.189,1.748.575,3.4.628,5.156.016.514-.665.861-1.015,1.09-.217.142-.539.109-.781.332a4.368,4.368,0,0,1-4.6.666l1.038-1.174c.272.2.979-1.643.8-1.864.022-.054.1-.077.133-.133V84.232l-.154-1.722c-.269-3.007,1.676-4.183.2-5.6-.526-.5-1.262-.378-1.819-.682a11.8,11.8,0,0,1-2.6-2.914c-.446-3.182-2.042-6.594-1.2-9.45-1.657-1.935-1.136-4.434-.187-6.551a23.114,23.114,0,0,0,1.638-5.042,5.121,5.121,0,0,0-3.025-5.785c-1.484-.664-3.4-5.339-4.148-6.729a1.252,1.252,0,0,1,.236-.7,5.411,5.411,0,0,0,.914-1.165c.039-.075.193-.148.338-.268a25.153,25.153,0,0,0,2.878,4.392,6.033,6.033,0,0,0,2.2,1.56c.583.275,1,.834,1.7,1.04a3.247,3.247,0,0,1,1.685-.985m4.7,7.739c.213-.11.59-.426.592-.681a1.025,1.025,0,0,0-1.413-.815,1.264,1.264,0,0,0-.2,1.155.986.986,0,0,0,1.016.341m2.713,5.457c1.209-.93-.155-3.556-.7-4.69-.569,1.591-1.194,4.157-.767,5.842a9.826,9.826,0,0,0,1.463-1.153" transform="translate(-165.899 -32.621)" fill="#401e1d"/>
    <path id="Trazado_704" data-name="Trazado 704" d="M264.722,34.864c.011-.972-.382-1.022-.159-1.935.091-.375-.117-.974-.546-.934s-.582.534-.69.888a4.332,4.332,0,0,1-1.508-1.852c-.3-.506-1.164-.972-1.607-.427a5.374,5.374,0,0,0-.66,1.848,2.1,2.1,0,0,1,.314-3.1,3.971,3.971,0,0,1,3.937-.824,3.136,3.136,0,0,1,1.533,1.724c.91,2.028-.17,2.465,1.442,3.834-.261.179-.517-.028-.909-.193-.1.407.2.663.32,1.057a1.325,1.325,0,0,1-.849-.5c-.155.3.1.437.078.707-.332.03-.477-.194-.7-.284" transform="translate(-224.524 -24.518)" fill="#401e1d"/>
    <path id="Trazado_705" data-name="Trazado 705" d="M240.605,421.018a3.978,3.978,0,0,1,.075,1.746c-.208.329-.707.3-.963.582a5.6,5.6,0,0,1-5.359,1.765.641.641,0,0,1-.576-.6c.006-.277.171-.458.385-.741-.728-.036-2.744.249-2.955-.378l2.97-1.025c.361-.125.686-.491,1.047-.347a4.368,4.368,0,0,0,4.6-.666c.242-.223.564-.19.781-.332" transform="translate(-200.432 -364.971)" fill="#6e4f49"/>
    <path id="Trazado_706" data-name="Trazado 706" d="M275.3,389.959c-.1.01-.136-.121-.136-.259v-1.744c0-.138.033-.27.136-.259Z" transform="translate(-238.535 -336.085)" fill="#fcd6ae"/>
    <path id="Trazado_707" data-name="Trazado 707" d="M268.395,407.564c-.149,0-.149-.083-.066-.137.063-.041.182-.072.2-.127l.66-1.6c.18.221-.527,2.067-.8,1.864" transform="translate(-232.56 -351.692)" fill="#fcd6ae"/>
    <path id="Trazado_708" data-name="Trazado 708" d="M267.765,90.2l.233.033a2.29,2.29,0,0,0,.049.367c0,.087-.071.181-.047.274-1.121.23.27.533-.82,1.318.383.447.731-.069,1.061-.061.309.008.619.287.995.059.3.11.325.694.735.7.521,0-.094-.707.445-1.237a.4.4,0,0,0,0-.529,2.706,2.706,0,0,1,0-.38,11.47,11.47,0,0,1,1.079-1.078,18.739,18.739,0,0,1-.285,3.156c-.37.388-3.476,4.232-3.735,3.987a21.346,21.346,0,0,1-.529-4.421c.018-.822.625-1.47.825-2.185" transform="translate(-231.404 -77.727)" fill="#fdfcfc"/>
    <path id="Trazado_709" data-name="Trazado 709" d="M294.406,130.527a.986.986,0,0,1-1.016-.341,1.264,1.264,0,0,1,.2-1.155,1.025,1.025,0,0,1,1.413.815c0,.255-.378.572-.592.681" transform="translate(-254.274 -111.771)" fill="#a98583"/>
    <path id="Trazado_710" data-name="Trazado 710" d="M266.709,48.383c-.205.206-.111.453.011.666.168.3-.136.665-.125.925a11.457,11.457,0,0,0-1.079,1.078,2.309,2.309,0,0,1-2.362-.141,2.287,2.287,0,0,1-.049-.367l.04-.3a.537.537,0,0,0-.041-.376,1.168,1.168,0,0,1-1.166-.815c-.106-.289.129-.743-.236-.961-.136-.081-.357-.089-.39-.2-.132-.451.585-1.146.228-1.921a5.375,5.375,0,0,1,.66-1.848c.443-.545,1.308-.079,1.607.427a4.332,4.332,0,0,0,1.508,1.852c.108-.354.253-.847.69-.888s.637.559.546.934c-.222.913.17.963.159,1.935" transform="translate(-226.51 -38.037)" fill="#d4b8b5"/>
    <path id="Trazado_711" data-name="Trazado 711" d="M171.937,9.608c2.173,1.863.824,2.513,2,3.839a5.417,5.417,0,0,1-.914,1.165c-.326-.2-.389-.6-.594-.947-.874-1.5-2.628-1.6-1.392-2.148-.382-.151-.575-.527-.918-.719.038-.428-.282-.889-.158-1.322a4.957,4.957,0,0,1,1.975.131" transform="translate(-147.312 -8.169)" fill="#d4b8b5"/>
    <path id="Trazado_712" data-name="Trazado 712" d="M273.371,92l-.233-.033a.46.46,0,0,1,.273-.266Z" transform="translate(-236.777 -79.493)" fill="#fcd6ae"/>
    <path id="Trazado_713" data-name="Trazado 713" d="M277.284,96.844a2.711,2.711,0,0,0,0,.38c-.42-.075-.694.361-1.109.454-.869-.288-.934-.07-1.3-.7-.024-.093.05-.186.047-.274a2.309,2.309,0,0,0,2.362.141" transform="translate(-238.279 -83.83)" fill="#fdfcfc"/>
    <path id="Trazado_714" data-name="Trazado 714" d="M269.568,98.758c.37.632.435.414,1.3.7.415-.094.688-.529,1.108-.454a.4.4,0,0,1,0,.529c-.539.53.075,1.242-.445,1.237-.41,0-.431-.587-.735-.7-.375.228-.685-.051-.995-.059-.33-.008-.678.508-1.061.061,1.09-.785-.3-1.088.82-1.318" transform="translate(-232.972 -85.611)" fill="#a98583"/>
  </g>
</svg>
